<?xml version="1.0" standalone="no"?>
<!DOCTYPE svg PUBLIC "-//W3C//DTD SVG 20010904//EN"
 "http://www.w3.org/TR/2001/REC-SVG-20010904/DTD/svg10.dtd">
<svg version="1.0" xmlns="http://www.w3.org/2000/svg"
 width="700.000000pt" height="700.000000pt" viewBox="0 0 700.000000 700.000000"
 preserveAspectRatio="xMidYMid meet">
<metadata>
Created by potrace 1.11, written by Peter Selinger 2001-2013
</metadata>
<g transform="translate(0.000000,700.000000) scale(0.100000,-0.100000)"
fill="#000000" stroke="none">
<path d="M3278 6996 c-1 -2 -41 -6 -88 -10 -47 -4 -101 -9 -120 -12 -35 -4
-152 -22 -200 -30 -26 -4 -234 -51 -285 -64 -191 -51 -423 -139 -620 -235
-180 -89 -240 -123 -390 -223 -664 -439 -1150 -1074 -1399 -1827 -33 -100 -80
-266 -91 -326 -3 -13 -14 -69 -24 -124 -43 -217 -56 -367 -56 -650 1 -194 7
-327 20 -406 2 -13 6 -46 10 -74 12 -98 23 -161 50 -285 106 -492 359 -1014
688 -1422 50 -62 100 -123 112 -134 198 -208 293 -297 445 -419 92 -74 370
-265 386 -265 4 0 15 -6 23 -14 26 -23 328 -172 446 -219 153 -62 417 -145
548 -173 92 -19 211 -41 272 -49 22 -2 56 -7 75 -10 196 -28 655 -27 850 1
596 87 1049 257 1525 573 253 168 473 363 710 632 157 177 334 445 461 699
129 258 244 576 290 805 14 70 44 236 48 270 3 22 8 62 12 90 3 27 8 61 11 75
8 48 10 525 3 605 -15 153 -21 210 -25 225 -2 8 -7 35 -10 60 -16 123 -79 380
-131 536 -166 502 -448 967 -808 1334 -121 123 -190 188 -266 250 -30 25 -57
47 -60 50 -3 4 -41 33 -85 66 -369 278 -796 483 -1237 594 -110 28 -247 57
-308 65 -14 2 -38 6 -55 9 -16 2 -57 7 -90 11 -33 3 -73 8 -90 11 -34 5 -541
14 -547 10z m417 -710 c55 -3 111 -8 125 -10 14 -3 48 -7 75 -11 28 -3 57 -8
65 -10 8 -2 31 -6 50 -9 84 -13 230 -50 343 -86 97 -31 98 -32 84 -53 -13 -20
-22 -22 -86 -19 -46 2 -80 -2 -98 -11 -20 -10 -37 -11 -58 -5 -179 51 -454 85
-690 85 -191 0 -279 -6 -442 -33 -38 -6 -43 -4 -43 13 0 11 11 30 25 43 27 25
32 49 14 67 -8 8 4 13 47 18 33 4 68 9 79 11 11 2 72 7 135 10 63 4 116 7 117
8 3 2 162 -2 258 -8z m-786 -77 c29 -10 51 -35 51 -57 0 -15 -44 -29 -70 -21
-74 21 -162 -12 -176 -66 -5 -19 -19 -28 -72 -46 -222 -74 -455 -190 -657
-327 -183 -126 -415 -337 -547 -501 -34 -42 -65 -78 -68 -81 -13 -10 -157
-228 -196 -295 -153 -267 -259 -564 -319 -890 -23 -124 -30 -233 -30 -450 0
-261 7 -338 55 -566 89 -426 302 -851 594 -1189 75 -87 260 -263 353 -337 293
-234 674 -425 1001 -503 46 -11 58 -19 88 -59 40 -54 42 -65 12 -55 -13 4 -30
8 -38 9 -20 2 -55 11 -192 51 -606 176 -1158 583 -1518 1119 -248 370 -407
803 -455 1240 -3 28 -8 68 -10 90 -6 54 -7 379 -1 435 3 25 8 70 11 100 9 91
14 131 31 215 34 173 112 434 166 554 100 222 168 346 283 512 89 131 117 163
125 148 4 -5 20 15 35 46 32 61 226 261 370 380 128 106 416 295 449 295 6 0
28 11 49 25 80 55 393 178 562 220 66 17 76 17 114 4z m582 -224 c0 -11 2 -45
4 -75 1 -30 6 -152 10 -270 3 -118 7 -217 7 -220 2 -21 -6 -29 -34 -35 -71
-16 -126 -53 -167 -114 -22 -32 -71 -86 -108 -120 l-68 -61 -7 33 c-4 19 -9
45 -12 58 -6 30 -98 434 -125 549 l-19 84 41 43 c23 24 64 52 94 64 36 14 53
27 53 39 0 23 22 28 151 36 57 3 105 7 106 8 1 0 17 1 37 1 29 1 36 -3 37 -20z
m319 0 c14 -3 48 -7 75 -11 64 -8 175 -31 182 -38 8 -8 -45 -178 -61 -195 -9
-9 -17 -37 -19 -61 -3 -25 -26 -112 -52 -195 -26 -82 -51 -165 -56 -182 -6
-18 -12 -33 -15 -33 -9 0 -159 78 -176 92 -17 14 -17 12 -34 491 l-5 148 68
-6 c37 -3 79 -8 93 -10z m495 -176 c8 -39 12 -75 8 -82 -4 -7 -9 -21 -10 -32
-6 -32 -21 -40 -41 -22 -10 9 -22 17 -25 17 -16 0 -4 -30 43 -103 28 -43 50
-80 50 -83 0 -2 -31 -4 -70 -4 -66 0 -70 -1 -70 -23 0 -28 -24 -55 -86 -98
-45 -30 -46 -31 -39 -8 5 13 14 44 21 69 7 25 34 113 59 195 26 83 53 171 60
197 18 66 21 68 55 57 25 -9 31 -18 45 -80z m-1447 -196 c12 -54 49 -217 82
-363 43 -188 59 -280 57 -315 -4 -51 9 -99 24 -89 7 4 15 -19 32 -93 3 -14 -1
-24 -11 -28 -8 -3 -16 -4 -17 -3 -1 2 -87 138 -190 303 -185 294 -268 426
-332 525 l-32 50 62 2 c34 0 67 2 72 3 6 2 22 3 36 4 15 0 60 23 100 50 41 27
79 50 85 50 6 1 21 -43 32 -96z m-448 -209 c420 -664 520 -826 515 -834 -4 -6
-12 -10 -19 -10 -7 0 -36 -18 -66 -40 -29 -22 -61 -42 -72 -45 -10 -4 -18 -12
-18 -19 0 -12 -60 -46 -83 -46 -7 0 -26 15 -43 33 -52 56 -52 58 10 51 90 -11
93 -4 68 156 -4 25 -7 91 -7 148 0 92 -2 102 -18 102 -31 0 -54 -18 -60 -48
-8 -39 -48 -76 -105 -97 -26 -9 -60 -31 -75 -48 l-28 -32 -26 30 c-14 17 -74
82 -133 145 -59 63 -120 129 -135 145 -15 17 -73 80 -130 140 -151 162 -184
199 -185 206 0 15 175 153 209 165 20 7 86 33 146 58 61 25 114 44 120 42 5
-1 66 -92 135 -202z m1440 -182 c0 -10 -9 -42 -19 -72 -15 -43 -24 -54 -38
-52 -29 6 -36 18 -35 64 0 65 0 66 25 70 59 9 67 8 67 -10z m-1990 -183 c69
-73 150 -160 180 -193 30 -33 66 -72 80 -87 14 -14 70 -75 125 -135 55 -59
129 -139 165 -177 60 -64 110 -131 110 -150 0 -4 -33 10 -72 31 -40 22 -118
63 -173 92 -55 29 -131 69 -170 90 -38 21 -117 62 -175 93 -58 30 -150 78
-205 107 -55 29 -151 80 -213 112 l-112 60 22 31 c37 53 103 142 109 147 3 3
32 37 64 75 83 99 85 100 115 66 14 -16 82 -89 150 -162z m1661 139 c1 -7 2
-26 4 -42 2 -30 -19 -58 -60 -82 -14 -8 -19 -23 -20 -60 -2 -64 -11 -89 -36
-100 -15 -7 -8 -9 31 -8 87 3 106 -10 78 -56 -10 -15 -9 -22 5 -38 28 -31 21
-72 -15 -85 -12 -4 -21 0 -28 13 -17 31 -25 24 -44 -35 -26 -84 -49 -104 -120
-106 l-59 -3 -13 45 c-18 60 -17 76 6 101 10 11 22 35 26 52 8 38 36 70 75 86
16 7 29 17 29 22 0 5 -4 7 -9 4 -15 -10 -61 34 -61 58 0 26 49 107 77 127 11
8 28 29 37 47 9 18 31 42 49 52 37 23 47 25 48 8z m224 -210 c23 -21 25 -26
15 -55 -9 -23 -17 -31 -31 -28 -33 7 -39 15 -39 54 0 57 13 64 55 29z m225
-117 c7 -14 5 -24 -8 -41 -20 -24 -48 -19 -57 11 -14 42 44 68 65 30z m-2634
-110 c5 -4 63 -37 129 -71 66 -35 233 -122 370 -195 138 -73 309 -163 380
-200 72 -38 165 -87 207 -109 43 -23 78 -44 78 -49 0 -15 -48 -25 -81 -17 -19
4 -68 20 -109 34 l-75 27 -17 -22 c-10 -11 -24 -42 -32 -67 -8 -26 -24 -65
-35 -87 -12 -21 -21 -46 -21 -53 0 -8 -6 -12 -14 -9 -21 8 -514 161 -771 239
-126 38 -236 71 -242 73 -12 4 8 68 67 220 20 52 144 295 150 295 3 0 10 -4
16 -9z m1294 -36 c17 -20 4 -50 -34 -79 -18 -13 -39 -39 -46 -56 l-13 -32 -43
49 c-38 42 -41 49 -27 58 9 6 34 29 56 52 35 38 41 41 67 31 16 -5 34 -16 40
-23z m1928 -510 c28 -20 52 -39 52 -44 0 -13 -130 -92 -140 -86 -11 7 -30 72
-30 104 0 29 26 61 49 61 9 0 40 -16 69 -35z m-701 -57 l23 -22 -72 -67 c-40
-37 -76 -63 -79 -57 -10 15 -1 65 17 101 36 71 69 84 111 45z m-699 -106 c45
-51 82 -100 82 -109 0 -11 -4 -13 -12 -6 -7 6 -55 32 -105 58 -87 45 -93 50
-93 79 0 32 25 80 39 74 5 -2 45 -45 89 -96z m-1863 -19 c116 -35 289 -89 385
-118 96 -29 189 -58 205 -64 29 -9 253 -78 287 -87 14 -4 15 -10 6 -34 -5 -17
-13 -31 -16 -31 -23 -5 -78 -8 -242 -13 -102 -4 -228 -9 -280 -11 -52 -3 -156
-7 -230 -10 -74 -3 -202 -7 -283 -10 l-148 -6 5 33 c3 18 8 65 11 103 6 73 18
154 36 240 18 84 19 87 37 80 10 -4 112 -36 227 -72z m2943 -16 c23 -17 42
-38 42 -46 0 -9 -23 -31 -51 -48 -49 -30 -56 -32 -153 -31 -55 0 -104 2 -108
5 -10 5 68 161 94 190 l20 22 57 -31 c31 -17 75 -44 99 -61z m-1459 -18 c86
-45 129 -75 166 -114 28 -29 70 -74 94 -100 24 -25 42 -48 40 -50 -2 -2 -58
-6 -124 -9 l-120 -5 -195 61 c-107 33 -197 61 -198 63 -11 11 56 84 112 121
36 24 73 55 82 69 9 14 19 25 22 25 2 0 57 -27 121 -61z m1951 37 c0 -8 -12
-17 -26 -20 -37 -10 -41 0 -7 18 35 19 33 19 33 2z m84 -193 c11 -34 -33 -73
-79 -73 -44 0 -137 38 -132 54 4 12 188 56 198 47 4 -3 10 -16 13 -28z m-2528
-117 l69 -25 -77 0 c-76 -1 -92 6 -80 37 6 16 7 16 88 -12z m4003 -23 c0 -278
0 -363 -3 -388 -2 -16 -7 -66 -11 -110 -5 -44 -9 -82 -10 -85 -1 -3 -5 -30
-10 -60 -5 -30 -9 -57 -10 -60 -1 -3 -5 -25 -9 -49 -8 -41 -10 -43 -22 -26
-21 28 -43 114 -48 185 -5 77 6 163 39 308 8 34 17 77 20 95 8 43 45 189 51
199 8 13 13 9 13 -9z m-2212 -109 c-2 -2 -13 -1 -25 3 -18 4 -20 8 -10 20 10
13 14 13 25 -3 7 -10 12 -19 10 -20z m-505 -21 c23 -21 23 -38 -2 -63 -19 -19
-23 -19 -49 -5 -29 14 -36 43 -17 73 10 17 47 15 68 -5z m-549 -75 c20 -6 37
-14 37 -18 0 -4 -27 -24 -59 -43 l-60 -35 -45 30 c-52 34 -55 44 -26 81 23 29
6 30 153 -15z m-1063 19 c0 -30 -68 -84 -137 -108 -58 -20 -80 -35 -144 -99
-89 -88 -158 -185 -166 -234 l-5 -34 -137 -32 c-75 -17 -171 -40 -215 -51 -43
-10 -84 -19 -91 -19 -12 0 -33 85 -54 215 -20 126 -35 335 -24 336 36 3 226
11 618 25 99 3 181 7 182 8 1 1 40 2 87 4 68 2 86 0 86 -11z m2830 -137 c0
-13 -11 -13 -30 0 -12 8 -11 10 8 10 12 0 22 -4 22 -10z m817 -35 c68 -42 174
-85 206 -85 27 0 64 -39 93 -97 16 -32 39 -73 51 -92 13 -19 23 -42 23 -51 0
-20 34 -29 -380 99 -401 123 -524 162 -528 166 -3 3 104 65 112 65 3 0 -3 -14
-12 -30 -14 -25 -15 -32 -4 -39 31 -19 133 7 266 70 44 21 85 38 90 38 5 1 42
-19 83 -44z m-1557 3 c-1 -33 -16 -38 -38 -13 l-22 25 30 0 c17 0 30 -5 30
-12z m888 -189 c57 -18 101 -37 99 -43 -5 -17 -79 -54 -108 -55 -28 -1 -39 14
-39 51 0 17 -5 20 -29 15 -27 -6 -33 -1 -65 42 l-34 49 36 -14 c20 -7 83 -28
140 -45z m-798 -197 c47 -49 110 -115 140 -148 30 -33 102 -110 160 -173 74
-80 116 -134 141 -185 32 -64 38 -71 65 -71 16 0 38 -9 49 -21 11 -11 35 -37
54 -57 l34 -36 -29 -12 c-16 -6 -50 -17 -76 -24 l-47 -13 -35 42 c-18 22 -66
74 -106 114 -55 56 -77 72 -93 68 -31 -8 -54 10 -61 46 -4 18 -31 66 -61 107
-30 40 -59 90 -65 111 -9 34 -33 73 -66 107 -12 12 -114 216 -114 227 0 21 36
-6 110 -82z m1473 -11 c175 -55 321 -102 324 -105 16 -15 -142 -430 -187 -493
-15 -20 -16 -20 -125 39 -60 32 -159 85 -220 117 -60 32 -163 86 -227 121 -65
34 -118 64 -118 66 0 3 27 31 60 63 65 64 124 171 136 247 4 32 11 44 23 44 9
0 159 -45 334 -99z m-4143 -86 c0 -3 -9 -33 -21 -68 -11 -34 -21 -86 -22 -117
-1 -49 3 -62 41 -117 48 -71 57 -57 -90 -149 l-102 -64 -29 58 c-62 124 -156
367 -146 376 5 4 338 84 357 85 6 1 12 -1 12 -4z m4740 -15 c0 -10 -6 -39 -13
-62 -8 -24 -24 -77 -37 -118 -169 -550 -563 -1091 -1037 -1422 -98 -69 -243
-160 -243 -153 0 3 7 20 16 36 8 17 13 37 10 46 -4 10 -24 -4 -72 -51 -36 -36
-90 -77 -120 -92 -30 -15 -61 -36 -69 -46 -7 -11 -36 -31 -65 -44 -103 -48
-408 -143 -459 -144 -24 0 17 38 94 85 38 24 133 67 210 95 246 91 488 223
688 374 121 92 149 117 302 270 284 285 504 642 628 1021 20 61 41 129 47 153
11 43 11 43 28 21 l18 -21 27 36 c31 40 47 46 47 16z m-1110 -356 c63 -34 153
-82 200 -107 47 -24 110 -58 140 -74 30 -17 92 -49 138 -72 45 -24 82 -46 82
-50 0 -25 -241 -351 -259 -351 -5 0 -25 18 -44 41 -29 32 -229 248 -273 293
-5 6 -33 37 -62 68 -45 51 -50 61 -42 83 11 29 -1 40 -34 31 -18 -4 -34 6 -79
53 -31 32 -57 63 -57 67 0 5 28 30 63 55 71 53 51 57 227 -37z m-3368 -318
c26 -28 48 -54 48 -58 0 -5 12 -8 28 -8 15 -1 65 -11 110 -23 l84 -23 -133
-125 c-73 -68 -141 -132 -151 -141 -10 -10 -22 -18 -26 -18 -4 0 -26 21 -48
47 -21 25 -44 51 -49 57 -6 6 -28 34 -50 61 -22 28 -43 52 -46 55 -4 3 -38 52
-77 110 l-70 104 91 58 c135 85 122 84 186 15 31 -34 77 -84 103 -111z m3200
-65 c11 -16 115 -128 300 -325 32 -34 58 -64 58 -67 1 -20 -299 -270 -396
-330 -44 -27 -36 -35 -151 151 -49 80 -97 156 -106 170 -16 25 -16 26 91 151
68 80 120 152 142 197 19 40 38 72 42 72 4 0 13 -8 20 -19z m-2558 -81 c23 -5
52 -22 70 -41 l29 -32 -46 -91 c-26 -50 -73 -138 -103 -196 -31 -58 -78 -146
-104 -197 l-48 -92 -83 57 c-46 31 -89 61 -95 67 -7 5 -50 42 -97 80 -48 39
-86 75 -86 80 1 6 35 41 78 79 42 39 110 102 151 140 177 166 162 156 232 156
35 0 81 -5 102 -10z m299 -154 c16 -4 25 -11 21 -17 -3 -6 3 -19 15 -30 23
-22 23 -32 -3 -118 -25 -83 -21 -111 21 -167 20 -27 40 -51 43 -54 22 -18 80
-102 98 -140 25 -54 28 -69 20 -95 -4 -11 -16 -53 -29 -93 l-22 -74 -36 7
c-83 16 -470 179 -487 206 -3 5 18 50 45 101 82 153 137 257 198 375 41 79 62
112 73 109 8 -2 28 -7 43 -10z m1366 -352 c1 -30 -44 -41 -69 -19 -23 21 -11
71 22 99 l23 18 12 -38 c6 -22 12 -49 12 -60z m568 -59 c38 -60 79 -126 91
-146 l22 -36 -94 -46 c-104 -52 -183 -87 -196 -87 -9 0 -51 116 -45 122 2 2 6
51 9 109 4 94 7 109 28 131 12 13 38 41 56 62 39 44 25 56 129 -109z m-716
-154 c19 -16 22 -23 13 -37 -6 -10 -15 -19 -21 -21 -16 -6 -63 37 -63 58 0 25
40 25 71 0z m242 -194 c5 -21 6 -44 3 -52 -8 -22 -56 -19 -57 3 -4 56 12 97
35 89 6 -2 15 -20 19 -40z"/>
<path d="M3433 5795 c-36 -15 -45 -45 -13 -45 12 0 26 12 35 30 9 17 14 30 13
30 -2 -1 -18 -7 -35 -15z"/>
</g>
</svg>
