<?xml version="1.0" standalone="no"?>
<!DOCTYPE svg PUBLIC "-//W3C//DTD SVG 20010904//EN"
 "http://www.w3.org/TR/2001/REC-SVG-20010904/DTD/svg10.dtd">
<svg version="1.0" xmlns="http://www.w3.org/2000/svg"
 width="700.000000pt" height="700.000000pt" viewBox="0 0 700.000000 700.000000"
 preserveAspectRatio="xMidYMid meet">
<metadata>
Created by potrace 1.11, written by Peter Selinger 2001-2013
</metadata>
<g transform="translate(0.000000,700.000000) scale(0.100000,-0.100000)"
fill="#000000" stroke="none">
<path d="M3280 6994 c-19 -2 -84 -9 -145 -14 -462 -44 -960 -204 -1370 -440
-981 -564 -1622 -1546 -1747 -2675 -17 -154 -17 -585 0 -730 82 -698 334
-1304 761 -1835 104 -130 343 -373 471 -480 542 -452 1166 -717 1885 -802 144
-17 586 -17 730 0 632 75 1186 288 1685 647 139 100 248 193 399 340 585 571
935 1293 1033 2130 16 145 17 588 0 730 -83 697 -325 1285 -754 1828 -109 138
-427 452 -568 561 -522 404 -1095 640 -1755 722 -113 14 -549 27 -625 18z
m620 -728 c206 -33 551 -123 550 -144 0 -4 -7 -15 -14 -24 -11 -15 -29 -18
-90 -18 -43 0 -85 -4 -94 -9 -12 -6 -50 -1 -117 15 -217 53 -360 68 -635 68
-187 0 -284 -5 -364 -17 -139 -22 -155 -13 -94 50 26 27 29 35 18 48 -7 8 -11
18 -8 20 3 3 56 12 119 20 154 19 582 14 729 -9z m-966 -67 c29 -23 34 -50 11
-69 -13 -10 -27 -11 -69 -1 -73 16 -135 -9 -156 -65 -6 -15 -34 -30 -102 -53
-647 -224 -1195 -703 -1509 -1320 -154 -301 -247 -628 -280 -974 -14 -156 -7
-469 15 -615 100 -669 425 -1252 936 -1680 310 -259 631 -425 1060 -546 48
-14 59 -22 88 -66 l33 -51 -38 7 c-73 13 -339 92 -433 129 -219 86 -464 221
-655 363 -116 86 -161 126 -294 255 -438 431 -709 964 -806 1587 -26 160 -31
531 -11 704 41 351 132 657 287 964 92 180 300 494 317 478 3 -4 22 20 42 51
41 64 241 265 365 368 236 196 584 388 875 483 232 76 282 84 324 51z m559
-276 c4 -43 10 -180 13 -305 l7 -226 -59 -19 c-63 -19 -109 -58 -175 -149 -46
-63 -137 -141 -144 -122 -2 7 -40 172 -84 367 l-81 353 50 48 c32 31 62 50 85
54 32 6 62 36 49 49 -5 5 19 9 111 20 17 2 73 5 126 6 l96 1 6 -77z m307 62
c121 -15 258 -40 268 -49 7 -8 -50 -189 -65 -207 -7 -8 -13 -27 -13 -41 0 -26
-113 -405 -125 -416 -3 -3 -48 15 -99 40 l-93 46 -6 161 c-4 89 -10 233 -13
321 -6 134 -5 160 7 160 8 0 70 -7 139 -15z m501 -148 c5 -23 14 -57 19 -74 5
-18 5 -35 0 -38 -4 -2 -10 -18 -13 -35 -7 -34 -30 -39 -59 -13 -18 16 -18 16
-12 -3 12 -31 45 -86 76 -125 15 -20 28 -39 28 -42 0 -3 -34 -8 -75 -12 -41
-4 -73 -10 -71 -14 10 -16 -18 -53 -69 -92 -30 -23 -58 -40 -60 -37 -5 4 150
522 161 540 3 4 18 2 34 -4 23 -8 32 -19 41 -51z m-1382 -492 c56 -246 81
-380 81 -423 0 -46 4 -64 15 -68 25 -10 47 -125 26 -138 -5 -3 -95 133 -201
302 -107 169 -217 343 -245 387 -98 153 -118 186 -114 189 2 2 48 9 102 14 94
10 100 13 169 61 40 28 75 48 79 44 3 -5 43 -170 88 -368z m-308 -260 c308
-489 326 -520 305 -526 -27 -8 -147 -88 -159 -107 -11 -17 -62 -42 -85 -42
-10 0 -38 22 -61 50 l-42 50 33 -6 c18 -3 43 -7 55 -10 55 -11 65 25 42 151
-6 33 -10 103 -10 156 l0 95 -29 -4 c-25 -3 -32 -11 -40 -41 -12 -46 -42 -74
-100 -96 -25 -10 -59 -32 -75 -50 l-31 -33 -304 329 c-168 181 -305 334 -305
341 0 15 196 174 216 175 7 1 64 22 124 47 61 25 117 45 125 43 8 -1 161 -236
341 -522z m1239 137 c0 -21 -29 -113 -40 -125 -4 -4 -18 -3 -31 3 -20 9 -24
19 -26 63 -2 64 8 77 58 77 31 0 39 -4 39 -18z m-1677 -520 c280 -303 374
-412 353 -412 -3 0 -257 133 -565 296 l-561 296 30 44 c44 63 138 180 199 247
l53 57 82 -87 c46 -49 230 -247 409 -441z m1347 434 c0 -51 -2 -55 -35 -75
-33 -19 -35 -23 -35 -73 0 -32 -6 -62 -16 -76 -15 -22 -14 -22 25 -22 21 0 46
-3 55 -6 18 -7 22 -49 5 -59 -7 -5 -5 -13 6 -25 38 -42 -2 -124 -43 -87 -26
24 -28 22 -41 -25 -6 -24 -20 -58 -31 -75 -17 -28 -26 -33 -59 -33 -21 0 -52
-3 -68 -6 l-30 -6 -13 66 c-11 57 -10 69 2 84 8 9 22 38 32 64 12 33 28 54 53
69 l35 22 -25 21 c-14 11 -28 30 -31 41 -7 24 45 120 74 135 11 6 29 28 40 50
19 37 59 69 88 70 8 0 12 -17 12 -54z m229 -165 c22 -17 23 -21 11 -55 -11
-35 -23 -42 -54 -30 -12 4 -16 20 -16 55 0 55 16 63 59 30z m227 -127 c7 -28
-10 -54 -36 -54 -26 0 -43 26 -36 54 10 42 62 42 72 0z m-2341 -263 c171 -90
434 -229 585 -309 151 -79 277 -146 279 -148 2 -2 -2 -10 -9 -19 -18 -22 -51
-19 -157 17 l-95 32 -19 -23 c-10 -12 -23 -39 -29 -59 -16 -60 -64 -152 -76
-148 -7 3 -234 73 -505 156 -272 83 -499 153 -506 155 -12 4 6 68 56 195 32
80 154 321 161 318 3 -2 145 -77 315 -167z m980 143 c36 -24 32 -59 -11 -97
-20 -18 -43 -45 -51 -61 l-15 -30 -44 50 c-46 52 -52 64 -32 64 7 0 31 20 54
45 44 49 61 54 99 29z m1946 -525 c24 -17 48 -35 53 -40 8 -7 -124 -99 -144
-99 -5 0 -16 24 -25 53 -32 109 25 151 116 86z m-704 -54 l28 -24 -75 -69 -75
-70 -8 30 c-10 38 32 134 65 148 33 13 34 13 65 -15z m-621 -198 c3 -10 4 -21
1 -23 -7 -7 -181 81 -201 102 -19 19 -15 53 11 93 l16 25 83 -90 c46 -49 86
-97 90 -107z m-1621 -33 c297 -92 582 -180 634 -195 52 -16 97 -31 99 -34 3
-3 -31 -5 -76 -5 -66 0 -82 3 -82 15 0 12 -4 11 -20 -5 -16 -16 -33 -20 -92
-20 -40 0 -174 -5 -298 -10 -489 -20 -792 -31 -794 -28 -6 7 15 206 29 292 22
128 33 166 48 161 6 -2 255 -79 552 -171z m2508 160 c18 -10 62 -37 98 -61 49
-32 66 -48 62 -61 -6 -26 -83 -71 -139 -81 -44 -8 -184 -4 -184 6 0 13 86 172
103 191 24 26 20 26 60 6z m-1339 -98 c111 -59 128 -73 209 -160 48 -52 87
-96 87 -99 0 -2 -55 -7 -122 -10 l-121 -7 -199 62 c-109 33 -198 66 -198 71 0
22 55 80 105 112 29 19 63 48 76 64 13 16 28 30 33 30 5 1 63 -28 130 -63z
m1956 35 c0 -9 -60 -24 -67 -17 -3 3 8 11 24 19 27 15 43 14 43 -2z m74 -167
c22 -57 -15 -97 -87 -97 -47 0 -130 38 -124 56 3 9 141 48 198 56 4 1 10 -6
13 -15z m1473 -386 c-3 -139 -10 -284 -16 -323 -24 -149 -43 -245 -51 -245
-12 0 -37 68 -50 138 -19 96 13 325 86 618 30 119 37 77 31 -188z m-2206 131
c10 -20 9 -21 -12 -16 -13 4 -28 7 -33 7 -5 0 -3 7 4 15 17 20 27 19 41 -6z
m-506 -39 c15 -17 16 -24 7 -46 -10 -20 -18 -25 -44 -22 -40 4 -56 28 -40 62
14 32 51 35 77 6z m-582 -63 c37 -11 67 -23 67 -26 0 -8 -114 -81 -126 -81
-18 0 -84 62 -84 79 0 9 7 27 16 39 17 25 11 25 127 -11z m-1037 -6 c-17 -32
-71 -81 -89 -81 -7 0 -39 -13 -72 -29 -99 -47 -262 -233 -280 -318 -4 -18 -8
-33 -10 -33 -2 0 -101 -22 -220 -50 -119 -27 -220 -50 -225 -50 -17 0 -62 277
-75 457 l-6 91 53 6 c50 5 710 31 866 35 l73 1 -15 -29z m3617 -130 c67 -45
162 -90 218 -102 32 -7 61 -21 75 -36 34 -37 116 -192 112 -213 -3 -15 -60 1
-460 124 -252 77 -454 143 -450 147 22 19 112 62 118 57 4 -4 -1 -19 -10 -33
-16 -24 -16 -26 0 -32 32 -12 135 16 242 66 59 27 108 50 110 50 2 1 22 -12
45 -28z m-778 9 c7 -12 -12 -12 -40 0 -18 8 -17 9 7 9 15 1 30 -3 33 -9z
m-742 -40 c-8 -31 -18 -32 -43 -5 l-23 25 35 0 c31 0 35 -3 31 -20z m767 -144
c25 -8 84 -26 133 -40 100 -31 109 -46 45 -75 -85 -39 -104 -36 -110 14 -3 26
-7 30 -29 27 -20 -2 -34 7 -63 42 -41 51 -41 52 24 32z m725 -224 c143 -44
289 -89 325 -100 35 -11 66 -24 68 -30 6 -19 -89 -287 -143 -400 l-54 -113
-43 24 c-46 26 -132 72 -343 183 -71 37 -169 89 -217 114 l-87 46 60 60 c67
66 120 161 140 249 7 32 17 54 23 52 6 -3 128 -41 271 -85z m-1484 68 c10 -6
127 -127 259 -270 192 -207 246 -272 269 -322 27 -55 34 -63 58 -63 21 0 41
-14 81 -57 l54 -57 -30 -15 c-16 -8 -50 -20 -76 -27 l-47 -12 -37 44 c-20 24
-67 76 -105 116 -60 62 -73 71 -97 67 -31 -7 -60 16 -60 48 0 12 -23 53 -52
92 -28 39 -60 94 -70 121 -11 28 -34 68 -51 90 -34 42 -127 220 -127 242 0 16
5 16 31 3z m-2607 -245 c-35 -111 -32 -151 16 -226 22 -34 40 -65 40 -68 -1
-3 -54 -39 -118 -79 l-117 -73 -46 98 c-45 95 -111 261 -124 314 l-6 25 173
41 c95 23 180 41 189 42 15 1 14 -8 -7 -74z m4756 56 c0 -57 -104 -351 -188
-531 -217 -467 -617 -911 -1075 -1189 -37 -22 -69 -41 -72 -41 -2 0 3 12 11
27 7 16 14 36 14 47 0 13 -18 1 -68 -46 -38 -36 -92 -76 -121 -90 -28 -15 -59
-36 -69 -47 -22 -26 -184 -90 -359 -141 -149 -44 -175 -48 -167 -26 9 24 155
113 214 132 140 44 376 149 519 231 350 202 705 546 926 898 120 190 234 445
301 672 25 85 29 92 44 78 23 -21 27 -19 45 15 17 34 45 40 45 11z m-913 -462
c200 -106 363 -195 363 -198 0 -23 -241 -351 -258 -351 -4 0 -102 102 -217
227 -181 195 -210 230 -207 255 2 25 -1 28 -27 28 -23 0 -42 14 -90 66 l-62
66 63 48 c35 27 65 49 67 49 3 1 168 -85 368 -190z m-3617 -151 l103 -113 104
-27 c57 -14 106 -28 109 -31 6 -6 -291 -287 -304 -287 -9 0 -90 92 -186 212
-20 25 -63 86 -96 134 l-58 88 106 67 c59 37 110 68 114 68 3 1 52 -50 108
-111z m3421 -312 c101 -109 184 -203 184 -209 0 -30 -402 -353 -428 -344 -10
3 -236 356 -236 367 0 3 45 57 100 120 64 74 114 143 140 193 22 43 44 77 48
75 5 -2 91 -92 192 -202z m-2671 78 c22 -20 40 -41 40 -47 0 -20 -294 -567
-305 -567 -23 1 -355 254 -355 272 0 4 89 90 198 192 l197 185 92 1 c93 0 93
0 133 -36z m256 -124 c8 0 14 -8 14 -19 0 -10 7 -24 15 -31 20 -16 19 -35 -6
-126 -11 -42 -18 -86 -15 -97 3 -12 40 -65 82 -117 43 -52 87 -118 100 -146
l23 -52 -30 -98 c-16 -53 -31 -99 -34 -102 -22 -22 -533 190 -523 218 2 5 71
137 153 295 149 284 150 286 179 280 16 -3 35 -5 42 -5z m1344 -310 c15 -63 9
-80 -29 -80 -54 0 -66 65 -21 110 30 30 37 25 50 -30z m587 -122 l102 -162
-42 -24 c-54 -31 -205 -99 -237 -107 -23 -6 -27 -2 -40 42 -17 56 -20 154 -7
237 7 51 16 67 59 118 28 32 54 58 57 58 4 0 52 -73 108 -162z m-742 -122 c27
-12 35 -21 35 -41 0 -32 -25 -43 -58 -24 -37 21 -49 44 -33 63 16 19 14 19 56
2z m258 -209 c12 -51 4 -69 -30 -65 -23 2 -29 8 -31 35 -7 73 45 99 61 30z"/>
<path d="M3433 5793 c-23 -5 -38 -29 -23 -38 13 -8 27 1 40 26 6 10 9 18 8 18
-2 -1 -13 -4 -25 -6z"/>
</g>
</svg>
